<?xml version="1.0" encoding="UTF-8"?>
<svg id="Layer_2" data-name="Layer 2" xmlns="http://www.w3.org/2000/svg" viewBox="0 0 559.34 418.74">
  <defs>
    <style>
      .cls-1 {
        fill: #fff;
      }
    </style>
  </defs>
  <g id="Layer_1-2" data-name="Layer 1">
    <g>
      <path class="cls-1" d="M559.34,69.32c-25.73,31.87-49.1,61.58-73.3,90.67-52.32,62.98-104.98,125.71-157.54,188.45-18.38,21.98-36.91,43.87-55.68,65.52-2.06,2.4-5.95,4.7-8.98,4.7-87.26,.14-174.53,.05-261.79-.1-.29,0-.62-.29-2.06-1.01,13.39-20.93,27.79-41.18,39.6-62.78,9.07-16.66,20.11-22.46,39.46-21.79,50.3,1.73,100.66,.43,151.01,.72,7.97,.05,13.39-1.73,18.72-8.5,64.99-82.37,130.46-164.3,195.5-246.58,5.04-6.38,9.84-9.7,18.38-9.55,31.01,.58,61.97,.24,96.67,.24Z"/>
      <path class="cls-1" d="M411.46,.01c0,27.79,.1,54.19-.14,80.59-.05,2.59-1.49,5.9-3.36,7.73-26.5,25.68-53.18,51.22-79.82,76.7-.38,.38-1.34,.24-3.12,.43V86.8h-89.9v212.83h-86.98v-12.1c0-65.28,.1-130.56-.14-195.79-.05-7.39,2.26-12.38,7.54-17.33,24.19-22.7,48-45.84,72.1-68.64,2.74-2.59,6.72-5.52,10.13-5.52C295.06-.08,352.46,.01,411.46,.01Z"/>
    </g>
  </g>
</svg>