<?xml version="1.0" encoding="utf-8"?>
<!-- Generator: Adobe Illustrator 27.0.0, SVG Export Plug-In . SVG Version: 6.00 Build 0)  -->
<svg version="1.1" id="Layer_1" xmlns="http://www.w3.org/2000/svg" xmlns:xlink="http://www.w3.org/1999/xlink" x="0px" y="0px"
	 viewBox="0 0 566.93 566.93" style="enable-background:new 0 0 566.93 566.93;" xml:space="preserve">
<g>
	<path d="M310.48,259.89c-9.07-15.71-18.02-31.22-27.06-46.87c-9.04,15.65-17.99,31.17-27.06,46.88c0.55,0,0.91,0,1.27,0
		c4.03,0,8.06,0,12.09,0c3.26,0,5.33,2.08,5.33,5.34c0,22.42,0,44.84,0,67.26c0,2.25-1.4,4.16-3.5,4.8c-2.12,0.64-4.46-0.1-5.58-2
		c-0.51-0.87-0.84-1.99-0.84-2.99c-0.05-20.32-0.04-40.64-0.04-60.96c0-0.43,0-0.85,0-1.36c-0.45-0.02-0.81-0.06-1.17-0.06
		c-5.32,0-10.65,0.01-15.97-0.01c-2.9-0.01-4.88-1.74-5.24-4.56c-0.16-1.22,0.27-2.31,0.87-3.36c3.25-5.62,6.5-11.25,9.75-16.88
		c7.73-13.4,15.46-26.79,23.19-40.19c0.78-1.34,1.56-2.68,2.34-4.03c2.26-3.9,6.87-3.92,9.12-0.04
		c5.39,9.33,10.78,18.67,16.17,28.01c6.39,11.08,12.79,22.15,19.18,33.24c2.16,3.75-0.15,7.77-4.48,7.8
		c-5.32,0.03-10.65,0.01-15.97,0.01c-0.31,0-0.63,0-1.08,0c0,0.45,0,0.84,0,1.23c0,20.35,0,40.7,0,61.04c0,3.22-2.25,5.43-5.38,5.3
		c-2.66-0.11-4.57-2.29-4.68-5.33c-0.01-0.4-0.01-0.81-0.01-1.21c0-21.67,0-43.34,0.01-65.01c0-0.77,0.03-1.57,0.21-2.31
		c0.56-2.3,2.53-3.73,5.06-3.74c4.12-0.01,8.23,0,12.35,0C309.66,259.89,309.97,259.89,310.48,259.89z"/>
	<path d="M346.76,359.09c0-0.43,0-0.8,0-1.17c0-11.94,0-23.89,0-35.83c0-2.68,1.83-4.82,4.32-5.08c2.7-0.28,4.97,1.33,5.55,3.96
		c0.08,0.36,0.09,0.74,0.09,1.11c0,13.99-0.02,27.97,0.02,41.96c0.01,2.95-2.45,5.12-5.12,5.11c-45.41-0.04-90.82-0.03-136.24-0.03
		c-2.62,0-4.45-1.29-5.1-3.64c-0.11-0.41-0.14-0.85-0.14-1.28c-0.01-14.1-0.01-28.2,0-42.3c0-2.79,2.13-4.9,4.92-4.9
		c6.82,0,13.64-0.01,20.46,0c2.8,0,4.97,2.19,4.96,4.99c-0.01,2.78-2.18,4.96-4.99,4.97c-4.75,0.01-9.5,0-14.25,0
		c-0.34,0-0.68,0-1.08,0c0,10.75,0,21.41,0,32.13C262.33,359.09,304.47,359.09,346.76,359.09z"/>
</g>
</svg>
