<?xml version="1.0" encoding="utf-8"?>
<!-- Generator: Adobe Illustrator 27.0.0, SVG Export Plug-In . SVG Version: 6.00 Build 0)  -->
<svg version="1.1" id="Layer_1" xmlns="http://www.w3.org/2000/svg" xmlns:xlink="http://www.w3.org/1999/xlink" x="0px" y="0px"
	 viewBox="0 0 566.93 566.93" style="enable-background:new 0 0 566.93 566.93;" xml:space="preserve">
<style type="text/css">
	.st0{fill:#FFFFFF;}
	.st1{fill:#969696;}
	.st2{fill:#6A7392;}
</style>
<g>
	<g>
		<path class="st0" d="M481.94,283.07c0,49.36-18.01,94.51-47.84,129.23c-34.06,39.7-83.55,65.77-139.18,68.94
			c-3.8,0.22-7.63,0.33-11.48,0.33c-3.85,0-7.68-0.11-11.48-0.33c-55.63-3.17-105.12-29.24-139.18-68.94
			c-29.83-34.72-47.84-79.87-47.84-129.23c0-109.63,88.87-198.5,198.5-198.5C393.07,84.57,481.94,173.44,481.94,283.07z"/>
		<g>
			<path class="st1" d="M132.78,412.3c34.06,39.7,83.55,65.77,139.18,68.94"/>
			<path class="st1" d="M294.92,481.24c55.63-3.17,105.12-29.24,139.18-68.94"/>
			<path class="st1" d="M434.1,342.83v69.47c-34.06,39.7-83.55,65.77-139.18,68.94h-22.96c-55.63-3.17-105.12-29.24-139.18-68.94
				v-69.47c0-13.51,10.95-24.46,24.46-24.46h252.4C423.15,318.37,434.1,329.32,434.1,342.83z"/>
			<circle class="st1" cx="281.41" cy="226.75" r="67.19"/>
		</g>
	</g>
	<polyline class="st2" points="453.44,321.78 362.56,412.66 310.88,360.98 400.98,270.88 	"/>
	<path class="st2" d="M403.98,267.88l7.38-7.38c7.05-7.05,18.48-7.05,25.54,0l26.15,26.15c7.05,7.05,7.05,18.48,0,25.54l-6.6,6.6"/>
	<polygon class="st2" points="304.97,365.39 356.15,416.57 286.97,430.57 	"/>
</g>
</svg>
